<svg id="map_view" xmlns="http://www.w3.org/2000/svg" width="64" height="80" viewBox="0 0 16.275 20.735">
  <path id="earth" data-name="earth" d="M608.439,147.988l-.026.033a5.879,5.879,0,0,0-.856,1.365,14.381,14.381,0,0,0-1.167,3.443l-.015.172-.087.174a1.175,1.175,0,0,1-.731.594l-.288.085-.288-.085a1.171,1.171,0,0,1-.731-.594l-.04-.073c-.4-.06-.916-.311-1.287.009-.219-.159-.62-.139-.567-.569a4.291,4.291,0,0,0-1.247.115,3.692,3.692,0,0,0,.681-.8.857.857,0,0,1,.795.225c.334-.1-.263-.169-.118-.456a1.756,1.756,0,0,1,.795.8c.115-.073.117-.26.342-.227.015.357.263.414.51.425-.026-.126-.068-.31-.136-.552a.7.7,0,0,0-.144.013.411.411,0,0,1,.075-.254c-.112-.375-.275-.857-.507-1.448q-.275.02-.249.342a1.824,1.824,0,0,0-1.587.342,7.87,7.87,0,0,0-.339-.909c-.421.071-.467.518-.567.909.247.02.36-.1.339-.342.162.56.4.329.34,1.135h-.567c.01.36-.3.678.226.683-.665.69-1.518,2.171-.339,2.838,2.56-.707,1.447,2.248,2.381,3.407,2.151-.392,1.253-2.786,2.722-3.862-.015-.25-.482-.048-.682-.114.405-.313,1.032-.405,1.36-.795a.308.308,0,0,0-.225-.342c.875-.346,1.426.612,1.587,1.363.553-.239.445-1.143,1.246-1.135,0,.073,0,.146,0,.218a6.838,6.838,0,0,0,.1-.991c0,.105.008.211.008.318a6.742,6.742,0,1,1-13.31-1.525,6.629,6.629,0,0,0-.084,1.059v.009c.526-.026,1.062-.062,1.043.459.318-.115-.031-.482,0-.682.634-.235.536-1.2,1.362-1.248-.009-.18.053-.434-.116-.452.078-.154.3.053.568-.115-.232-.221-.177-.731-.339-1.022-.54.323-.494-.441-1.021-.454-.374.285-.013.688-.227,1.362-.308-.063-.335-.406-.586-.526a6.776,6.776,0,0,1,.969-1.384c.037.259.032.542.409.659.119-.527.246-.53.681-.568-.184-.211-.454-.335-.63-.555a6.855,6.855,0,0,1,.909-.7,4.017,4.017,0,0,0,.516.683.962.962,0,0,0,.453,1.363c.479-.834,1.931-1.058,2.188-2.046a12.557,12.557,0,0,1-.887-1.332l-.029.006c-.068-.118-.137-.241-.208-.372l-.039-.072-.026-.077c-.02-.057-.07-.21-.126-.413a8.138,8.138,0,1,0,7.819,2.477Zm-4.155,5.577c.38-.262.492.715.795.907C604.646,154.789,604.614,153.731,604.284,153.565Z" transform="translate(-594.27 -140.853)" fill="currentColor"/>
  <path id="pin" data-name="pin" d="M605.994,147.876a14.346,14.346,0,0,1,1.248,3.746.122.122,0,0,0,.226,0,14.349,14.349,0,0,1,1.248-3.746c.609-1.38,1.217-1.607,2.187-3.408a4.88,4.88,0,0,0,.253-1.277,3.748,3.748,0,0,0-3.8-3.692h0a3.748,3.748,0,0,0-3.8,3.692,4.88,4.88,0,0,0,.253,1.277C604.777,146.269,605.385,146.5,605.994,147.876Zm1.361-6.283h0a1.6,1.6,0,1,1,0,3.2h0a1.6,1.6,0,1,1,0-3.2Z" transform="translate(-596.362 -139.499)" fill="currentColor"/>
</svg>
