<svg aria-hidden="true" focusable="false" data-icon="search" class="_3757_c" role="img" xmlns="http://www.w3.org/2000/svg" viewBox="-752.709 1641.004 16.069 17.044"><path d="M -745.9718017578125 1654.478515625 C -744.6779174804688 1654.478515625 -743.4774169921875 1654.102294921875 -742.451904296875 1653.47021484375 C -742.4392700195313 1653.4853515625 -742.4305419921875 1653.501953125 -742.4179077148438 1653.516357421875 L -738.6549072265625 1657.6728515625 C -738.5330200195313 1657.806640625 -738.3848876953125 1657.901611328125 -738.2265014648438 1657.965087890625 L -738.1837768554688 1658.0166015625 L -738.1568603515625 1657.989501953125 C -737.7736206054688 1658.11474609375 -737.3372802734375 1658.041748046875 -737.0189819335938 1657.753662109375 C -736.5469970703125 1657.32666015625 -736.5105590820313 1656.59033203125 -736.9381713867188 1656.118408203125 L -740.7011108398438 1651.9619140625 C -740.7066650390625 1651.95556640625 -740.7130126953125 1651.951416015625 -740.7185668945313 1651.946044921875 C -739.7936401367188 1650.79296875 -739.2329711914063 1649.33447265625 -739.2329711914063 1647.740478515625 C -739.2329711914063 1644.020263671875 -742.25 1641.00390625 -745.9718017578125 1641.00390625 C -749.6928100585938 1641.00390625 -752.708984375 1644.02099609375 -752.708984375 1647.740478515625 C -752.708984375 1651.46142578125 -749.6919555664063 1654.478515625 -745.9718017578125 1654.478515625 Z M -750.6849975585938 1647.740478515625 C -750.6849975585938 1645.137451171875 -748.5746459960938 1643.027099609375 -745.9718017578125 1643.027099609375 C -743.368896484375 1643.027099609375 -741.2570190429688 1645.137451171875 -741.2570190429688 1647.740478515625 C -741.2570190429688 1650.344970703125 -743.368896484375 1652.454345703125 -745.9718017578125 1652.454345703125 C -748.5746459960938 1652.454345703125 -750.6849975585938 1650.344970703125 -750.6849975585938 1647.740478515625 Z"></path></svg>